HIERARCHY
ROOT Hips
{
	OFFSET 0.053599 88.859886 3.107447
	CHANNELS 6 Xposition Yposition Zposition Zrotation Yrotation Xrotation 
	JOINT Spine
	{
		OFFSET -0.000000 8.814246 -2.080107
		CHANNELS 3 Zrotation Yrotation Xrotation
		JOINT Spine1
		{
			OFFSET 0.000000 8.844141 0.000000
			CHANNELS 3 Zrotation Yrotation Xrotation
			JOINT Spine2
			{
				OFFSET -0.000000 11.682268 0.000000
				CHANNELS 3 Zrotation Yrotation Xrotation
				JOINT Spine3
				{
					OFFSET 0.000000 11.746700 0.000000
					CHANNELS 3 Zrotation Yrotation Xrotation
					JOINT Neck
					{
						OFFSET -0.000000 17.658264 -0.000000
						CHANNELS 3 Zrotation Yrotation Xrotation
						JOINT Neck1
						{
							OFFSET -0.000000 5.101515 -0.000000
							CHANNELS 3 Zrotation Yrotation Xrotation
							JOINT Head
							{
								OFFSET 0.000000 5.101515 0.000000
								CHANNELS 3 Zrotation Yrotation Xrotation
								JOINT HeadEnd
								{
									OFFSET 0.000000 11.655085 0.000000
									CHANNELS 3 Zrotation Yrotation Xrotation
									End Site
									{
										OFFSET 0.000000 0.000000 0.000000
									}
								}
							}
						}
					}
					JOINT RightShoulder
					{
						OFFSET -2.625389 11.175210 0.000000
						CHANNELS 3 Zrotation Yrotation Xrotation
						JOINT RightArm
						{
							OFFSET -0.000000 10.434715 -0.000000
							CHANNELS 3 Zrotation Yrotation Xrotation
							JOINT RightForeArm
							{
								OFFSET -0.000000 29.628420 0.000000
								CHANNELS 3 Zrotation Yrotation Xrotation
								JOINT RightHand
								{
									OFFSET -0.000000 22.857611 0.000000
									CHANNELS 3 Zrotation Yrotation Xrotation
									JOINT RightHandThumb1
									{
										OFFSET -2.867323 3.959563 2.944291
										CHANNELS 3 Zrotation Yrotation Xrotation
										JOINT RightHandThumb2
										{
											OFFSET 0.000000 3.350399 0.000000
											CHANNELS 3 Zrotation Yrotation Xrotation
											JOINT RightHandThumb3
											{
												OFFSET 0.000000 3.756509 -0.000000
												CHANNELS 3 Zrotation Yrotation Xrotation
												JOINT RightHandThumb4
												{
													OFFSET 0.000000 3.147345 0.000000
													CHANNELS 3 Zrotation Yrotation Xrotation
													End Site
													{
														OFFSET 0.000000 0.000000 0.000000
													}
												}
											}
										}
									}
									JOINT RightHandIndex1
									{
										OFFSET -0.086752 10.030893 2.345280
										CHANNELS 3 Zrotation Yrotation Xrotation
										JOINT RightHandIndex2
										{
											OFFSET -0.000000 4.061090 0.000000
											CHANNELS 3 Zrotation Yrotation Xrotation
											JOINT RightHandIndex3
											{
												OFFSET -0.000000 3.248873 0.000000
												CHANNELS 3 Zrotation Yrotation Xrotation
												JOINT RightHandIndex4
												{
													OFFSET 0.000000 2.639709 -0.000000
													CHANNELS 3 Zrotation Yrotation Xrotation
													End Site
													{
														OFFSET 0.000000 0.000000 0.000000
													}
												}
											}
										}
									}
									JOINT RightHandMiddle1
									{
										OFFSET 0.104102 9.502952 0.006768
										CHANNELS 3 Zrotation Yrotation Xrotation
										JOINT RightHandMiddle2
										{
											OFFSET 0.000000 4.568727 0.000000
											CHANNELS 3 Zrotation Yrotation Xrotation
											JOINT RightHandMiddle3
											{
												OFFSET 0.000000 3.654981 -0.000000
												CHANNELS 3 Zrotation Yrotation Xrotation
												JOINT RightHandMiddle4
												{
													OFFSET -0.000000 2.741236 -0.000000
													CHANNELS 3 Zrotation Yrotation Xrotation
													End Site
													{
														OFFSET 0.000000 0.000000 0.000000
													}
												}
											}
										}
									}
									JOINT RightHandRing1
									{
										OFFSET 0.086752 8.921708 -2.267442
										CHANNELS 3 Zrotation Yrotation Xrotation
										JOINT RightHandRing2
										{
											OFFSET -0.000000 4.061090 0.000000
											CHANNELS 3 Zrotation Yrotation Xrotation
											JOINT RightHandRing3
											{
												OFFSET 0.000000 3.654981 -0.000000
												CHANNELS 3 Zrotation Yrotation Xrotation
												JOINT RightHandRing4
												{
													OFFSET 0.000000 2.741236 -0.000000
													CHANNELS 3 Zrotation Yrotation Xrotation
													End Site
													{
														OFFSET 0.000000 0.000000 0.000000
													}
												}
											}
										}
									}
									JOINT RightHandPinky1
									{
										OFFSET -0.173504 7.976997 -4.467199
										CHANNELS 3 Zrotation Yrotation Xrotation
										JOINT RightHandPinky2
										{
											OFFSET 0.000000 3.350399 -0.000000
											CHANNELS 3 Zrotation Yrotation Xrotation
											JOINT RightHandPinky3
											{
												OFFSET -0.000000 2.842763 0.000000
												CHANNELS 3 Zrotation Yrotation Xrotation
												JOINT RightHandPinky4
												{
													OFFSET -0.000000 2.639709 0.000000
													CHANNELS 3 Zrotation Yrotation Xrotation
													End Site
													{
														OFFSET 0.000000 0.000000 0.000000
													}
												}
											}
										}
									}
									JOINT RightForeArmEnd
									{
										OFFSET 0.000000 0.000000 0.000000
										CHANNELS 3 Zrotation Yrotation Xrotation
										End Site
										{
											OFFSET 0.000000 0.000000 0.000000
										}
									}
								}
								JOINT RightArmEnd
								{
									OFFSET 0.000000 0.000000 0.000000
									CHANNELS 3 Zrotation Yrotation Xrotation
									End Site
									{
										OFFSET 0.000000 0.000000 0.000000
									}
								}
							}
						}
					}
					JOINT LeftShoulder
					{
						OFFSET 2.625389 11.175210 0.000000
						CHANNELS 3 Zrotation Yrotation Xrotation
						JOINT LeftArm
						{
							OFFSET 0.000000 10.813635 -0.000000
							CHANNELS 3 Zrotation Yrotation Xrotation
							JOINT LeftForeArm
							{
								OFFSET 0.000000 28.724781 0.000000
								CHANNELS 3 Zrotation Yrotation Xrotation
								JOINT LeftHand
								{
									OFFSET 0.644384 25.716167 -0.328871
									CHANNELS 3 Zrotation Yrotation Xrotation
									JOINT LeftHandThumb1
									{
										OFFSET 2.867323 3.959563 2.944291
										CHANNELS 3 Zrotation Yrotation Xrotation
										JOINT LeftHandThumb2
										{
											OFFSET 0.000000 3.350399 0.000000
											CHANNELS 3 Zrotation Yrotation Xrotation
											JOINT LeftHandThumb3
											{
												OFFSET -0.000000 3.756509 0.000000
												CHANNELS 3 Zrotation Yrotation Xrotation
												JOINT LeftHandThumb4
												{
													OFFSET -0.000000 3.100000 0.000000
													CHANNELS 3 Zrotation Yrotation Xrotation
													End Site
													{
														OFFSET 0.000000 0.000000 0.000000
													}
												}
											}
										}
									}
									JOINT LeftHandIndex1
									{
										OFFSET 0.086752 10.030893 2.345280
										CHANNELS 3 Zrotation Yrotation Xrotation
										JOINT LeftHandIndex2
										{
											OFFSET -0.000000 4.061090 -0.000000
											CHANNELS 3 Zrotation Yrotation Xrotation
											JOINT LeftHandIndex3
											{
												OFFSET 0.000000 3.248873 -0.000000
												CHANNELS 3 Zrotation Yrotation Xrotation
												JOINT LeftHandIndex4
												{
													OFFSET 0.000000 2.639709 -0.000000
													CHANNELS 3 Zrotation Yrotation Xrotation
													End Site
													{
														OFFSET 0.000000 0.000000 0.000000
													}
												}
											}
										}
									}
									JOINT LeftHandMiddle1
									{
										OFFSET -0.104102 9.502952 0.006768
										CHANNELS 3 Zrotation Yrotation Xrotation
										JOINT LeftHandMiddle2
										{
											OFFSET -0.000000 4.568727 -0.000000
											CHANNELS 3 Zrotation Yrotation Xrotation
											JOINT LeftHandMiddle3
											{
												OFFSET 0.000000 3.654981 0.000000
												CHANNELS 3 Zrotation Yrotation Xrotation
												JOINT LeftHandMiddle4
												{
													OFFSET 0.000000 2.741236 -0.000000
													CHANNELS 3 Zrotation Yrotation Xrotation
													End Site
													{
														OFFSET 0.000000 0.000000 0.000000
													}
												}
											}
										}
									}
									JOINT LeftHandRing1
									{
										OFFSET -0.086752 8.921708 -2.267442
										CHANNELS 3 Zrotation Yrotation Xrotation
										JOINT LeftHandRing2
										{
											OFFSET 0.000000 4.061090 0.000000
											CHANNELS 3 Zrotation Yrotation Xrotation
											JOINT LeftHandRing3
											{
												OFFSET 0.000000 3.654981 0.000000
												CHANNELS 3 Zrotation Yrotation Xrotation
												JOINT LeftHandRing4
												{
													OFFSET 0.000000 2.741236 0.000000
													CHANNELS 3 Zrotation Yrotation Xrotation
													End Site
													{
														OFFSET 0.000000 0.000000 0.000000
													}
												}
											}
										}
									}
									JOINT LeftHandPinky1
									{
										OFFSET 0.173504 7.976997 -4.467199
										CHANNELS 3 Zrotation Yrotation Xrotation
										JOINT LeftHandPinky2
										{
											OFFSET -0.000000 3.350399 -0.000000
											CHANNELS 3 Zrotation Yrotation Xrotation
											JOINT LeftHandPinky3
											{
												OFFSET 0.000000 2.842763 0.000000
												CHANNELS 3 Zrotation Yrotation Xrotation
												JOINT LeftHandPinky4
												{
													OFFSET -0.000000 2.639709 -0.000000
													CHANNELS 3 Zrotation Yrotation Xrotation
													End Site
													{
														OFFSET 0.000000 0.000000 0.000000
													}
												}
											}
										}
									}
									JOINT LeftForeArmEnd
									{
										OFFSET 0.000000 0.000000 0.000000
										CHANNELS 3 Zrotation Yrotation Xrotation
										End Site
										{
											OFFSET 0.000000 0.000000 0.000000
										}
									}
								}
								JOINT LeftArmEnd
								{
									OFFSET 0.000000 0.000000 0.000000
									CHANNELS 3 Zrotation Yrotation Xrotation
									End Site
									{
										OFFSET 0.000000 0.000000 0.000000
									}
								}
							}
						}
					}
				}
			}
		}
	}
	JOINT RightUpLeg
	{
		OFFSET -11.289943 0.000000 0.000000
		CHANNELS 3 Zrotation Yrotation Xrotation
		JOINT RightLeg
		{
			OFFSET 0.000000 -38.200325 0.000000
			CHANNELS 3 Zrotation Yrotation Xrotation
			JOINT RightFoot
			{
				OFFSET -0.000000 -39.900856 -0.000000
				CHANNELS 3 Zrotation Yrotation Xrotation
				JOINT RightToeBase
				{
					OFFSET 0.000000 0.000000 15.261641
					CHANNELS 3 Zrotation Yrotation Xrotation
					JOINT RightToeBaseEnd
					{
						OFFSET 0.000000 0.000000 7.370709
						CHANNELS 3 Zrotation Yrotation Xrotation
						End Site
						{
							OFFSET 0.000000 0.000000 0.000000
						}
					}
				}
				JOINT RightLegEnd
				{
					OFFSET 0.000000 0.000000 0.000000
					CHANNELS 3 Zrotation Yrotation Xrotation
					End Site
					{
						OFFSET 0.000000 0.000000 0.000000
					}
				}
			}
			JOINT RightUpLegEnd
			{
				OFFSET 0.000000 0.000000 0.000000
				CHANNELS 3 Zrotation Yrotation Xrotation
				End Site
				{
					OFFSET 0.000000 0.000000 0.000000
				}
			}
		}
	}
	JOINT LeftUpLeg
	{
		OFFSET 11.315661 -0.000000 0.000000
		CHANNELS 3 Zrotation Yrotation Xrotation
		JOINT LeftLeg
		{
			OFFSET -0.000000 -38.200325 -0.000000
			CHANNELS 3 Zrotation Yrotation Xrotation
			JOINT LeftFoot
			{
				OFFSET 0.000000 -39.900856 -0.000000
				CHANNELS 3 Zrotation Yrotation Xrotation
				JOINT LeftToeBase
				{
					OFFSET -0.000000 -0.000000 15.261641
					CHANNELS 3 Zrotation Yrotation Xrotation
					JOINT LeftToeBaseEnd
					{
						OFFSET 0.000000 -0.000000 7.539996
						CHANNELS 3 Zrotation Yrotation Xrotation
						End Site
						{
							OFFSET 0.000000 0.000000 0.000000
						}
					}
				}
				JOINT LeftLegEnd
				{
					OFFSET 0.000000 0.000000 0.000000
					CHANNELS 3 Zrotation Yrotation Xrotation
					End Site
					{
						OFFSET 0.000000 0.000000 0.000000
					}
				}
			}
			JOINT LeftUpLegEnd
			{
				OFFSET 0.000000 0.000000 0.000000
				CHANNELS 3 Zrotation Yrotation Xrotation
				End Site
				{
					OFFSET 0.000000 0.000000 0.000000
				}
			}
		}
	}
}
MOTION
Frames: 4
Frame Time: 0.016667
0.276502 88.795670 2.871639 -0.087684 -0.800165 -10.463565 0.797842 0.034755 7.013886 -0.761909 0.325794 3.245097 0.166629 -0.696601 4.049464 -1.141462 0.226906 4.828047 2.358548 0.063806 4.331869 0.428483 0.995184 -3.636828 -0.157449 -0.668483 -19.913830 0.000000 0.000000 0.000000 91.892601 -0.082433 10.018960 70.189888 -21.495909 2.245633 -0.029694 16.442451 30.775539 -14.091044 1.905833 -4.140300 15.353225 31.725250 66.652390 -3.030604 -3.661453 -6.763237 -2.139894 -2.361526 -4.522603 0.000000 0.000000 0.000000 -23.983761 -4.939001 13.029971 1.299541 0.545870 0.186617 1.109291 0.097452 0.195895 0.000000 0.000000 0.000000 -23.208042 0.448700 7.798355 0.459727 0.533221 0.042011 0.881312 0.026141 0.046228 0.000000 0.000000 0.000000 -22.226955 8.242148 1.657701 0.462283 -1.032930 -0.187448 0.497272 -0.052008 -0.099433 0.000000 0.000000 0.000000 -21.773714 16.221710 -5.011107 0.235658 -2.017633 -0.647851 0.177965 -0.018792 -0.533388 0.000000 0.000000 0.000000 0.000000 0.000000 0.000000 0.000000 0.000000 0.000000 -89.712097 -0.056332 5.440502 -72.392860 16.820923 -6.363138 0.285245 -10.348311 56.153049 22.092007 -0.249734 -8.940375 -14.218520 -32.168133 67.894440 1.563977 1.195540 -2.862443 1.004501 0.890090 -1.987833 0.000000 0.000000 0.000000 27.917032 -13.734155 19.774382 -0.783628 0.590303 -0.066781 -0.722272 0.116655 -0.127849 0.000000 0.000000 0.000000 27.226370 -8.245488 13.006927 -0.706788 0.544775 -0.058515 -0.810075 0.051308 -0.034781 0.000000 0.000000 0.000000 24.455246 0.180317 4.732189 -1.405193 -1.075952 0.179545 -1.590422 -0.067513 0.128547 0.000000 0.000000 0.000000 19.263407 9.900959 -3.766299 -2.394438 -2.078790 0.721778 -2.137688 -0.032380 0.653349 0.000000 0.000000 0.000000 0.000000 0.000000 0.000000 0.000000 0.000000 0.000000 -0.701790 -9.407397 14.119192 -0.078932 -0.685953 5.356073 -3.095607 -8.224965 17.983517 -0.833540 0.779352 -18.836832 0.000000 0.000000 0.000000 0.000000 0.000000 0.000000 0.000000 0.000000 0.000000 -1.102210 -6.358163 9.579904 0.063436 0.312734 9.700744 3.623472 -0.889330 17.141352 0.304225 -0.434885 -20.611254 0.000000 0.000000 0.000000 0.000000 0.000000 0.000000 0.000000 0.000000 0.000000 
0.279140 88.792595 2.844104 -0.064442 -0.757984 -10.486267 0.784380 0.037372 6.996907 -0.769095 0.329346 3.293037 0.154691 -0.700650 4.060799 -1.145295 0.228744 4.883902 2.385159 0.012650 4.412050 0.440805 0.955649 -3.598816 -0.141800 -0.685088 -19.927019 0.000000 0.000000 0.000000 91.870735 -0.079125 10.003375 70.234337 -21.283649 2.098530 -0.030516 16.619703 31.524662 -14.777872 1.616656 -3.704246 15.357963 31.726387 66.653519 -3.034045 -3.665418 -6.779184 -2.142794 -2.365816 -4.530940 0.000000 0.000000 0.000000 -24.150997 -4.894142 13.167239 1.273417 0.543789 0.193935 1.082749 0.096553 0.205687 0.000000 0.000000 0.000000 -23.371094 0.482067 7.908827 0.450396 0.533311 0.044607 0.874739 0.026456 0.048496 0.000000 0.000000 0.000000 -22.360054 8.262706 1.717990 0.491511 -1.032357 -0.189375 0.517900 -0.051783 -0.100646 0.000000 0.000000 0.000000 -21.858870 16.240490 -4.984713 0.299129 -2.014769 -0.651863 0.239562 -0.019327 -0.533051 0.000000 0.000000 0.000000 0.000000 0.000000 0.000000 0.000000 0.000000 0.000000 -89.756470 -0.050849 5.390428 -72.180168 16.648094 -6.468963 0.280577 -10.448963 57.076599 22.898600 0.340770 -8.258712 -14.219906 -32.170700 67.900917 1.562626 1.194311 -2.853565 1.002674 0.889368 -1.984177 0.000000 0.000000 0.000000 28.042709 -13.740108 19.880692 -0.751234 0.589447 -0.058386 -0.695853 0.116003 -0.120307 0.000000 0.000000 0.000000 27.343609 -8.261584 13.097931 -0.688561 0.543822 -0.055842 -0.797062 0.050850 -0.032949 0.000000 0.000000 0.000000 24.561985 0.160275 4.764904 -1.417046 -1.075591 0.176301 -1.604314 -0.067649 0.127597 0.000000 0.000000 0.000000 19.326536 9.890992 -3.783806 -2.455133 -2.075894 0.712732 -2.195462 -0.031264 0.648343 0.000000 0.000000 0.000000 0.000000 0.000000 0.000000 0.000000 0.000000 0.000000 -0.722206 -9.449152 14.141569 -0.078715 -0.686996 5.310252 -3.115223 -8.203956 18.006538 -0.833894 0.776975 -18.843128 0.000000 0.000000 0.000000 0.000000 0.000000 0.000000 0.000000 0.000000 0.000000 -1.129746 -6.372347 9.583731 0.063061 0.309574 9.694301 3.644188 -0.879305 17.153431 0.296519 -0.431564 -20.616356 0.000000 0.000000 0.000000 0.000000 0.000000 0.000000 0.000000 0.000000 0.000000 
0.282318 88.789658 2.818551 -0.040483 -0.708208 -10.510595 0.772462 0.039298 6.980798 -0.775451 0.332865 3.340807 0.142378 -0.704863 4.067037 -1.149084 0.229527 4.937092 2.410819 -0.036819 4.489387 0.452079 0.917351 -3.563086 -0.129043 -0.702547 -19.936567 0.000000 0.000000 0.000000 91.859764 -0.078957 9.981897 70.251007 -21.096056 1.957217 -0.027964 16.783745 32.237148 -15.446646 1.389552 -3.252811 15.368843 31.725035 66.648949 -3.046340 -3.679018 -6.812469 -2.152467 -2.376859 -4.552177 0.000000 0.000000 0.000000 -24.244707 -4.861806 13.299835 1.246788 0.542011 0.201735 1.055686 0.095898 0.215575 0.000000 0.000000 0.000000 -23.454254 0.502830 8.020914 0.440007 0.533501 0.047140 0.866457 0.026899 0.050643 0.000000 0.000000 0.000000 -22.404110 8.270771 1.793749 0.518488 -1.031838 -0.191564 0.536208 -0.051590 -0.101853 0.000000 0.000000 0.000000 -21.854637 16.249851 -4.930992 0.362328 -2.011619 -0.656568 0.300342 -0.019752 -0.532857 0.000000 0.000000 0.000000 0.000000 0.000000 0.000000 0.000000 0.000000 0.000000 -89.803185 -0.039697 5.341463 -71.972374 16.468185 -6.563251 0.268825 -10.562368 57.976734 23.661909 0.811716 -7.551492 -14.229251 -32.170044 67.899178 1.573691 1.207617 -2.869936 1.009231 0.897727 -1.997933 0.000000 0.000000 0.000000 28.077637 -13.733776 19.985607 -0.710466 0.588670 -0.050143 -0.662689 0.115462 -0.112758 0.000000 0.000000 0.000000 27.368177 -8.264801 13.191158 -0.660383 0.542944 -0.053035 -0.776448 0.050490 -0.031053 0.000000 0.000000 0.000000 24.570768 0.156009 4.809294 -1.418213 -1.075289 0.173161 -1.606727 -0.067887 0.126553 0.000000 0.000000 0.000000 19.287823 9.895832 -3.781628 -2.507565 -2.073079 0.704930 -2.245957 -0.030378 0.644346 0.000000 0.000000 0.000000 0.000000 0.000000 0.000000 0.000000 0.000000 0.000000 -0.745811 -9.494049 14.173428 -0.078486 -0.688213 5.268105 -3.131000 -8.185473 18.021164 -0.834265 0.774630 -18.848589 0.000000 0.000000 0.000000 0.000000 0.000000 0.000000 0.000000 0.000000 0.000000 -1.158426 -6.383554 9.588361 0.062683 0.306420 9.686762 3.665164 -0.869317 17.165359 0.288744 -0.428985 -20.623369 0.000000 0.000000 0.000000 0.000000 0.000000 0.000000 0.000000 0.000000 0.000000 
0.286008 88.787285 2.796071 -0.016259 -0.651696 -10.538587 0.761175 0.040687 6.967764 -0.782007 0.336701 3.385701 0.128995 -0.709788 4.070011 -1.151873 0.228659 4.987244 2.441633 -0.087359 4.565972 0.463642 0.879720 -3.527707 -0.118526 -0.720749 -19.941704 0.000000 0.000000 0.000000 91.862518 -0.082437 9.957611 70.244469 -20.944315 1.829583 -0.020936 16.934114 32.872440 -16.081776 1.242030 -2.810707 15.384568 31.722248 66.640945 -3.063995 -3.699095 -6.856287 -2.166549 -2.392947 -4.581933 0.000000 0.000000 0.000000 -24.285524 -4.839324 13.422848 1.222478 0.540741 0.209528 1.031368 0.095644 0.225155 0.000000 0.000000 0.000000 -23.477360 0.513938 8.130884 0.430914 0.533929 0.049438 0.859094 0.027525 0.052572 0.000000 0.000000 0.000000 -22.378008 8.269397 1.881578 0.544441 -1.031670 -0.193759 0.552960 -0.051582 -0.102818 0.000000 0.000000 0.000000 -21.775896 16.252186 -4.853364 0.424050 -2.008986 -0.660690 0.359254 -0.020622 -0.531761 0.000000 0.000000 0.000000 0.000000 0.000000 0.000000 0.000000 0.000000 0.000000 -89.850471 -0.022970 5.298106 -71.780113 16.302914 -6.634335 0.249545 -10.681269 58.803486 24.361786 1.129866 -6.864507 -14.245158 -32.166969 67.891380 1.594085 1.232626 -2.905836 1.022191 0.913182 -2.025109 0.000000 0.000000 0.000000 28.047852 -13.718831 20.085623 -0.664235 0.588041 -0.042431 -0.625081 0.115086 -0.105499 0.000000 0.000000 0.000000 27.323643 -8.258474 13.283848 -0.625006 0.542208 -0.050217 -0.750193 0.050260 -0.029173 0.000000 0.000000 0.000000 24.503918 0.163768 4.863222 -1.409960 -1.075154 0.170125 -1.599241 -0.068263 0.125326 0.000000 0.000000 0.000000 19.169228 9.912288 -3.762128 -2.550361 -2.070693 0.697592 -2.287354 -0.029932 0.640517 0.000000 0.000000 0.000000 0.000000 0.000000 0.000000 0.000000 0.000000 0.000000 -0.773176 -9.542319 14.218793 -0.078234 -0.689779 5.225320 -3.142337 -8.167654 18.026258 -0.835046 0.772777 -18.850149 0.000000 0.000000 0.000000 0.000000 0.000000 0.000000 0.000000 0.000000 0.000000 -1.186217 -6.389489 9.597440 0.062304 0.303418 9.676876 3.685274 -0.858839 17.176039 0.281432 -0.427190 -20.631355 0.000000 0.000000 0.000000 0.000000 0.000000 0.000000 0.000000 0.000000 0.000000 
